<svg xmlns="http://www.w3.org/2000/svg" width="512" height="512" viewBox="0 0 512 512">
<defs>
	<linearGradient id="bronze" x1="0%" x2="100%" y1="0%" y2="0%" gradientTransform="rotate(90)">
		<stop offset="0%" style="stop-color: rgb(242, 133, 24); stop-opacity: 1" />
		<stop offset="100%" style="stop-color: rgb(247, 138, 35); stop-opacity: 1" />
	</linearGradient>
</defs>
<path fill="url(#bronze)" d="M349.8,106V68.5H162.3V106h-75v18.8c0,49.7,29.9,93.6,75,112.7c0.1,30.7,15.1,57.7,38.1,74.8h-56.8v131.3h225V312.3h-56.8
	c22.9-17.1,38-44.1,38.1-74.8c45.1-19.1,75-63.1,75-112.7V106H349.8z M126.8,143.5h35.4v51.9C144.3,183.2,131.6,164.7,126.8,143.5z
	 M331,406H181v-56.3h150V406z M312.3,237.3c0,31-25.2,56.3-56.3,56.3c-31,0-56.3-25.2-56.3-56.3V106h112.5V237.3z M349.8,195.4
	v-51.9h35.4C380.4,164.7,367.7,183.2,349.8,195.4z"/>
</svg>
