<svg xmlns="http://www.w3.org/2000/svg" width="48" height="140" viewBox="0 0 12.7 37.042"><path d="M.262.262v6.096" fill="#d13239" stroke="#d13239" stroke-width=".523" stroke-linecap="square"/><g aria-label="关键词" style="line-height:1.25" font-weight="400" font-size="10.583" font-family="FangSong" letter-spacing="1.058" word-spacing="0" stroke-width=".265" writing-mode="tb-rl" fill="gray"><path d="M7.135 2.894q2.068-.248 2.15-.33l.579.454q-.413 0-3.225.33-.082.91-.206 1.82 3.266-.207 3.555-.331l.537.413q-.661 0-3.514.248.827 1.447 1.282 2.109.496.62.868 1.033.372.414 1.695.455v.207l-1.902.165q.083-.165-.578-1.157-.62-.993-1.654-2.812H6.35q-.413 1.365-1.488 2.48-1.034 1.076-2.687 1.696l-.083-.165q1.612-.745 2.563-1.82.95-1.074 1.24-2.067-2.728.207-3.018.249l-.537-.455q.537.082 3.68-.207.165-.95.206-1.819-2.15.165-2.274.29l-.62-.538q.786.083 3.514-.248.579-.95.95-1.736.373-.786.208-1.075L8.128 0l.496.827Q8.5.744 8.169 1.24q-.33.538-1.034 1.654zM5.647 2.15q-.165.372-.33.661Q4.82 1.82 4.034.703L4.2.62q.868.91 1.447 1.53zM8.086 19.373q.207-.166.166-.58v-.495q-.744.082-.951.124l-.455-.372q.496 0 1.406-.124v-.703q-.662.082-.827.124l-.372-.33q.537-.042 1.199-.125v-.744q-.414.041-.703.083l-.372-.331q.248-.041 1.075-.124v-.786q-.414.042-.992.124l-.455-.33q.537-.083 1.447-.166v-.744q-.372.041-.827.124l-.414-.372 1.24-.124v-.579q.042-.578-.206-1.157l.124-.042.661.538q-.248.207-.206.703v.496l.868-.124.207-.331.454.372-.248.29-.041.785q.661-.083.661-.124l.373.372q-.249.041-1.034.124l-.041.786.248.33-1.447.166v.744q.95-.124 1.157-.207l.414.372q-.414 0-1.571.165v.703q1.488-.165 1.612-.248l.455.455q-.455-.041-2.067.165v1.117q.041.702-.124.62zm2.812 1.281q-.951.207-1.737.414.042-.166-.868-.703-.868-.538-2.191-1.406-.786 1.406-1.736 2.274l-.124-.083q1.074-1.24 1.57-2.439-.62-.496-1.033-.537l-.041-.124.578-.124q.042.248.58.537.33-.95.495-1.943l-.578.083-.248.206-.331-.496.29-.082.62-1.902q-.538.083-.869.165l-.413-.372q.372 0 1.364-.165l.248-.372.372.455-.29.206-.66 1.985.537-.083.206-.33.372.454-.248.248q-.206 1.075-.578 2.15 1.116.702 2.025 1.281.951.538 1.323.538.414.041 1.365-.042zm-8.186-4.96q1.323-.166 1.902-.373l.372.413q-.29 0-.992.125l-.042 1.322q.662-.082.786-.165l.413.372q-.537.041-1.199.166l-.041 2.397 1.157-.868.083.124q-1.116 1.075-1.57 1.695l-.373-.455.33-.248.042-2.604q-.703.083-.91.165l-.454-.413q.579-.041 1.364-.124l.041-1.323q-.165.041-.578.165zm-.868.743q.579-1.075.91-1.736.33-.661.702-1.695.372-1.034.165-1.24l.125-.083.537.662q-.165.04-.29.33l-.496 1.158q.993-.166 1.2-.29l.413.414q-.662.083-1.737.29-.62 1.28-1.364 2.273zm7.69-2.728l-.91.124v.744l.868-.083zm-.91 1.24v.785l.785-.082.083-.786zM6.433 30.187q.041.869-.042.91-.082 0-.413-.703.124-.33.083-1.447-.042-1.116-.207-1.612l.124-.041.372.62 1.571-.248.372-.372.455.537-.372.248-.207 1.53.372.372zm1.736 1.034l1.406.827q.206.124.165-.662v-7.028q-3.39.414-3.68.538l-.413-.414q.786-.041 3.969-.496l.33-.372.497.414-.331.33v6.987q.041 1.075-.248 1.654-.785-.91-1.736-1.613zm-2.48-1.571q-1.365 1.53-1.737 2.067l-.372-.455q.248-.206.248-.579l.042-3.886q-1.447.207-1.613.372l-.455-.413q.62-.041 2.026-.29l.248-.413.455.414-.29.33-.04 3.97 1.405-1.241zm2.273-1.612l-1.57.248.04 1.57 1.324-.206zm.992-1.902q-.454.041-1.819.248-1.322.207-1.57.29l-.414-.414q.372 0 1.778-.207 1.447-.248 1.653-.33zm-4.382-.91q-.62-.91-1.405-1.736l.082-.165q.951.579 1.447.992-.041.413-.124.91z" style="-inkscape-font-specification:FangSong"/></g></svg>