<svg xmlns="http://www.w3.org/2000/svg" width="48" height="100" viewBox="0 0 12.7 26.458"><g aria-label="标题" style="line-height:1.25" font-weight="400" font-size="10.583" font-family="FangSong" letter-spacing="2.646" word-spacing="0" fill="gray" stroke-width=".265" writing-mode="vertical-lr"><path d="M4.283 9.012q0 .786-.124.496l-.413-.702q.206-.248.165-.703l.041-3.804Q3.125 5.994 1.844 7.4l-.124-.124Q2.96 5.664 3.87 3.39q-1.158.165-1.282.248l-.579-.455q.951-.041 1.943-.206V1.406q.042-.91-.206-1.323L3.87 0 4.53.66q-.248.042-.207.703v1.571q1.116-.124 1.116-.207l.497.455q-.703 0-1.613.166v.826q.538.29 1.158.58 0 .413-.042.785-.454-.538-1.116-1.117zm1.943-1.157l1.323.827q.083-.331.083-.827v-3.1q.04-.62-.124-.91-1.53.206-1.86.29l-.58-.456q.62 0 2.853-.248 2.274-.248 2.563-.372l.496.455q-.62 0-3.39.33l.579.414q-.207 0-.165.703v3.183q0 .827-.372 1.447-.538-.785-1.489-1.612zm3.638-6.45q-.33 0-1.86.249-1.53.206-1.53.248l-.579-.414q.538 0 1.985-.206Q9.327 1.033 9.327.95zm-3.473 3.39l.455.745q-.207.041-.744.826-.537.745-1.364 1.613l-.124-.166q.868-1.033 1.323-1.86.496-.827.33-1.075zm2.191.166q1.075.827 2.067 1.57-.04.373-.165.786Q9.657 6.242 8.5 5.085zM2.133 17.818q.827-.041 2.274-.248 1.488-.207 1.778-.29l.33.455q-.661.042-1.612.124l-.041.993q.703-.083 1.075-.207l.33.413q-.206.042-1.405.207l-.042 1.53q1.034.372 1.571.496.786-.62 1.158-1.406.372-.827.455-1.86.124-1.075-.083-1.365l.083-.082.62.496q-.166.207-.248 1.075-.083.992-.538 1.86-.413.827-1.199 1.406.745.248 1.117.33.826.207 1.24.248.413.083 1.86-.041v.207q-1.364.29-1.777.537.04-.165-1.447-.661-1.489-.455-4.341-1.489-.538 1.406-1.323 2.316l-.166-.083q.869-1.282 1.2-2.605.33-1.323.123-1.488l.083-.083.62.538q-.165.124-.248.372-.041.207-.207.703l1.075.413.083-2.687q-1.53.207-1.902.33zm1.613-1.075q.04.538-.125.496l-.413-.579q.165-.289.165-.744v-1.364q0-.703-.206-1.24l.165-.042.414.662 1.777-.207.166-.372.496.372-.248.29-.166 2.15.248.371zm3.017 2.15q.166-.29.124-.662v-1.736Q6.93 16 6.763 15.38l.124-.083.331.579.662-.083.248-1.364q-.993.083-1.365.165l-.454-.413q.578.041 2.108-.124 1.53-.165 1.778-.248l.454.455q-.868 0-2.067.124l-.496 1.405 1.2-.165.247-.372.496.413-.33.372q-.124 2.894-.166 3.308-.041.372-.165.04l-.29-.495q.166-.248.166-.579.041-.372.083-2.315l-2.067.248v2.604q.082.745-.083.58zM3.746 15.13q1.033-.124 1.24-.166l.33.331-1.57.166v.909l1.653-.165.166-2.109-1.82.207zm6.242 5.994q-.455-.62-1.57-1.736l.082-.124q1.075.785 1.57 1.116 0 .33-.082.744z" style="-inkscape-font-specification:FangSong"/></g><path d="M.262.262v6.096" fill="#d13239" stroke="#d13239" stroke-width=".523" stroke-linecap="square"/></svg>