<svg xmlns="http://www.w3.org/2000/svg" width="48" height="48" viewBox="0 0 12.7 12.7"><g style="line-height:1.25"><path d="M4.63 2.55l-2.01-.72c.126.922.126 2.107.126 3.007 0 .804-.095 4.762-.095 5.662 0 .275.01.518.561.518.466 0 1.016-.19 1.143-.487.053-.116.053-.2.053-.592h3.44c-.022.942-.022 1.037.433 1.037.075 0 .519.01.974-.254.307-.18.35-.392.35-.667 0-.942-.064-5.556-.043-6.604.466-.254.519-.275.519-.423 0-.106-.096-.18-.17-.244l-1.143-.952c-.148-.117-.18-.148-.264-.148-.096 0-.138.042-.212.148l-.519.72zm3.218.255V5.98h-3.44V2.805zm0 3.429v3.45h-3.44v-3.45z" style="-inkscape-font-specification:'A-OTF Ryumin Pr5'" font-family="A-OTF Ryumin Pr5" aria-label="日" font-weight="400" font-size="10.583" letter-spacing="0" word-spacing="0" stroke-width=".265"/></g></svg>