<svg xmlns="http://www.w3.org/2000/svg" width="512" height="512" viewBox="0 0 512 512">
<defs>
	<linearGradient id="bluen" x1="0%" x2="100%" y1="0%" y2="0%" gradientTransform="rotate(90)">
		<stop offset="0%" style="stop-color: rgb(3, 72, 199); stop-opacity: 1" />
		<stop offset="100%" style="stop-color: rgb(6, 88, 223); stop-opacity: 1" />
	</linearGradient>
</defs>
<g>
	<path fill="url(#bluen)" d="M256,141.9c-40.5,0-73.4,32.9-73.4,73.4s32.9,73.4,73.4,73.4s73.4-32.9,73.4-73.4S296.5,141.9,256,141.9z M256,252.1
		c-20.2,0-36.7-16.5-36.7-36.7s16.5-36.7,36.7-36.7s36.7,16.5,36.7,36.7S276.2,252.1,256,252.1z"/>
	<path fill="url(#bluen)" d="M256,68.5c-81,0-146.9,65.9-146.9,146.9c0,76.3,120.1,200.8,133.8,214.8l13.1,13.4l13.1-13.4
		c13.7-13.9,133.8-138.5,133.8-214.8C402.9,134.4,337,68.5,256,68.5z M256,390.6c-39.7-43-110.1-128.9-110.1-175.3
		c0-60.7,49.4-110.1,110.1-110.1s110.1,49.4,110.1,110.1C366.1,261.6,295.7,347.6,256,390.6z"/>
</g>
</svg>
