<svg xmlns="http://www.w3.org/2000/svg" viewBox="0 0 12.7 12.7" height="48" width="48"><g fill="none" stroke="#000"><path d="M7.874 7.186a1.738 1.738 0 0 1-2.36.688 1.738 1.738 0 0 1-.688-2.36 1.738 1.738 0 0 1 2.36-.688 1.738 1.738 0 0 1 .688 2.36z" stroke-width=".229" stroke-linejoin="bevel"/><path d="M4.167 1.08h4.365l3.087 3.087v4.366l-3.086 3.086H4.168L1.08 8.532V4.166z" stroke-width=".264"/></g><g stroke="#000" stroke-width=".132" fill="none"><path d="M5.16 5.068l-1.741-1.74M4.73 5.755l-1.406-.133m2.017 2.142l-1.256.107m1.554.066L4.82 10.55m1.588-2.455l1.397 1.662m-.041-2.373l2.811.76M8.12 6.615l1.165-1.117M7.3 4.92l2.903-.902m-4.101.612l-.653-1.372m-2.03.07l1.906-.757-.703 1.919m.703-1.919l.57-1.463m-2.476 2.22l-.74.327.215 1.488m-.215-1.488l-.124-.935m.289 1.993l-1.763-.547"/><path d="M4.126 4.027L2.704 6.813l-.992-1.24"/><path d="M3.712 4.837l-2 .736-.571.223M2.704 6.813l.587.695-.901.52 1.728.86-.1-3.2m-.728 1.82l.761-.439m-1.893-.942L1.91 9.285m.48-1.257l-.38.224m-.902-1.017l.96-.042m2.05 1.695l1.066.505m-.049.165l1.992-.612"/><path d="M3.853 8.731l-.48.281.935 1.513 1.653.042.563-.596.628 1.638m-2.844-1.084l-1.19.025m.255-1.538l-1.058.703m4.209.256L6.25 9.22m-.289 1.347l-.95 1.017m3.175-4.11l-.836 1.72m-.512 1.588L8.847 8.69l.157 1.728m-1.596-.223l2.191.322M8.847 8.69l-.058-1.034m.116 1.604l1.67-.71M4.432 2.927l-.753-1.356m2.522-.463l.695 1.513m-1.761.496l2.439 1.058-.248-1.794M5.763 3.382l3.001-1.96m-.521.323l.794 1.513-.587.438.835.587M7.417 3.034l1.033.662m.587-.438l.992-.612m.554.512L9.575 5.664M8.02 4.705l2.431 1.513M7.574 4.175l.074.587M8.839 5.92l.554 1.893M9.22 7.21l2.38-1.852m-1.662-.612l1.638.364M9.938 6.64l1.621.959m-.967-.571l.016 2.505"/></g></svg>