<svg xmlns="http://www.w3.org/2000/svg" width="512" height="512" viewBox="0 0 512 512">
<defs>
	<linearGradient id="bronze" x1="0%" x2="100%" y1="0%" y2="0%" gradientTransform="rotate(90)">
		<stop offset="0%" style="stop-color: rgb(242, 133, 24); stop-opacity: 1" />
		<stop offset="100%" style="stop-color: rgb(247, 138, 35); stop-opacity: 1" />
	</linearGradient>
</defs>
<path fill="url(#bronze)" d="M339.7,266.7l0.3,0.5l11.4-6.2c56.8-30.9,92.1-90.3,92.1-155V87.2h-56.3V68.5H124.8v18.7H68.5V106
	c0,64.7,35.3,124.1,92.1,155l11.1,6c14.1,20.6,23.1,42.2,26.4,63.9h-69.2l-28.1,112.5h310.5L383.1,331h-69.5
	c3-23.8,11.3-45.5,24.7-62.4C338.8,268,339.2,267.3,339.7,266.7z M385.6,124.7h19.1c-3.5,26-14.5,50.2-31,70.1
	C379.7,173.6,383.6,150,385.6,124.7z M107.3,124.7h19c1.9,25.3,5.8,48.6,11.6,69.7C121.6,174.6,110.8,150.6,107.3,124.7z
	 M353.9,368.5l9.4,37.5H148.8l9.4-37.5h41.6h93.8H353.9z"/>
</svg>
