<svg xmlns="http://www.w3.org/2000/svg" width="48" height="48" viewBox="0 0 12.7 12.7"><g style="line-height:1.25"><path d="M5.741 2.254L3.678 1.63c.158.868.19 2.519.19 3.46 0 3.24-.338 4.774-1.619 6.15l.063.063c2.551-1.217 2.964-3.1 3.059-4.392h2.921v.116c0 .36 0 1.778-.021 2-.042.329-.212.329-.508.329-.35 0-1.312-.064-1.397-.074v.084c.751.35 1.228.836 1.291 1.937.35-.021.826-.053 1.408-.307.92-.413.92-1.016.92-2.053 0-.836-.042-4.964-.042-5.895.392-.212.508-.307.508-.476 0-.106-.053-.138-.138-.201l-1.227-.868c-.074-.053-.159-.106-.212-.106-.063 0-.074.01-.18.159l-.508.698zm2.551.254v1.905H5.487V2.508zm0 2.16v1.989h-2.9c.053-.635.085-1.355.095-1.99z" style="-inkscape-font-specification:'A-OTF Ryumin Pr5'" font-family="A-OTF Ryumin Pr5" aria-label="月" font-weight="400" font-size="10.583" letter-spacing="0" word-spacing="0" stroke-width=".265"/></g></svg>