<svg xmlns="http://www.w3.org/2000/svg" width="170" height="48" viewBox="0 0 44.979 12.7"><path d="M3.457 1.444L1.444 2.911l.048 6.531 2.488 1.814h37.416l2.139-1.56V3.142l-2.327-1.697H3.457zm25.91 1.798c.031 0 .038.006.12.063l.673.476c.032.026.07.058.07.096 0 .07-.07.076-.102.076H28.89a7.682 7.682 0 0 1-.698.8h.584l.26-.356c.058-.076.083-.089.12-.089.026 0 .046 0 .14.064l.604.419c.095.063.095.095.095.12 0 .07-.031.108-.273.235 0 .337.026 2 .026 2.382 0 .14 0 .247-.254.355-.14.057-.343.096-.546.077.285.07 1.187.273 1.187.8 0 .222-.19.489-.495.489-.242 0-.35-.153-.534-.451-.355-.572-.647-.769-.8-.87v-.051c.153.006.318.02.622.083-.095-.038-.114-.07-.114-.274h-1.149c-.006.077-.02.102-.064.147l.744.425c.019.013.07.044.07.108 0 .095-.121.108-.286.127a5.675 5.675 0 0 1-2.242.794l-.02-.05a4.335 4.335 0 0 0 1.404-1.252c-.038.006-.153.032-.273.032-.222 0-.241-.134-.241-.248 0-.324.032-1.746.032-2.07 0-.584-.02-.896-.045-1.232l.908.286h.083c.019-.248.038-.565.031-.8h-.489c-.387 0-.482.013-.609.032l-.102-.223c.267.025.566.038.832.038h1.53l.337-.482c.038-.051.057-.076.102-.076zm-11.513.019l1.124.178c.045.006.127.025.127.088 0 .083-.05.102-.216.172v.28h.42l.24-.395c.02-.025.058-.076.102-.076.044 0 .076.026.12.064l.49.394c.044.038.063.063.063.095 0 .07-.064.07-.095.07h-1.34v.52h.673l.28-.393c.019-.026.057-.077.101-.077.039 0 .064.02.12.064l.522.393c.038.026.07.052.07.096 0 .07-.07.07-.096.07h-1.486l.705.158c.057.013.114.032.114.096 0 .07-.031.076-.317.146-.337.26-.616.45-.73.527h.59l.254-.369c.02-.031.058-.076.102-.076.038 0 .076.032.12.064l.483.368c.032.025.064.063.064.095 0 .064-.051.07-.096.07h-1.48v.553h.318l.242-.394c.019-.032.05-.076.095-.076.032 0 .07.032.114.07l.483.38c.038.032.063.064.063.102 0 .057-.05.07-.095.07h-1.22c.007.33.007.368.007.635h.578l.305-.432c.019-.025.057-.076.108-.076.044 0 .082.032.12.063l.502.432c.038.032.064.057.064.095 0 .058-.045.07-.096.07h-1.575c0 .19 0 .534-.006.572-.057.247-.45.33-.705.33-.215 0-.266-.076-.266-.305 0-.095.019-.508.019-.597h-.654c-.394 0-.509.02-.61.039l-.108-.223c.368.032.743.032.832.032h.546c.006-.21.006-.425.006-.635h-.387c-.349 0-.463.006-.61.032l-.101-.222c.273.025.552.038.825.038h.273l.006-.553h-.628c-.35 0-.47.013-.61.038l-.101-.222c.356.032.717.032.825.032h.108c-.031-.038-.108-.267-.127-.33a1.611 1.611 0 0 0-.35-.597 2.534 2.534 0 0 0-.481.038l-.108-.223a9.8 9.8 0 0 0 .831.032h.63c0-.095-.007-.444-.007-.52h-.47c-.35 0-.476.019-.61.038l-.101-.222c.355.031.723.031.825.031h.356c-.013-.248-.032-.54-.083-.717zm17.126.019l1.124.222c.101.02.14.038.14.095 0 .108-.184.159-.26.184v.572h.196l.254-.458c.013-.025.045-.082.096-.082.044 0 .076.038.114.076l.463.445c.038.038.064.063.064.101 0 .07-.07.07-.095.07h-2.433c-.349 0-.47.013-.609.038l-.108-.228c.222.025.597.038.832.038h.324c0-.75-.051-.92-.102-1.073zM9.834 3.31l1.13.229c.064.013.102.032.102.095 0 .077-.083.127-.21.19 0 .928.007 1.5.013 2.16 0 .304.025 1.657.025 1.93 0 .724 0 1.2-1.288 1.39-.013-.183-.058-.8-.763-1.136v-.057c.426.038.547.045.769.045.33 0 .342-.09.342-.344V4.277c0-.267-.031-.616-.12-.966zm-1.981.02c.031 0 .07.019.127.07l.584.507c.032.032.063.064.063.095 0 .077-.063.077-.095.077H7.358c-.21.336-.47.71-.82 1.092.356-.013.553-.019 1.061-.063-.171-.457-.292-.591-.362-.667l.019-.051c.527.114 1.365.413 1.365 1.086 0 .4-.343.54-.533.54-.286 0-.305-.108-.407-.616-.267.14-.54.26-1.003.45l.806.153c.076.012.108.038.108.082 0 .058-.019.07-.197.178v.59h.166l.298-.495c.025-.044.051-.076.096-.076.044 0 .07.026.12.07l.515.483c.044.044.063.063.063.101 0 .07-.064.07-.095.07H7.395v.87c.66-.083.877-.108 1.296-.197l.013.058c-.153.107-.451.33-1.112.653-.705.343-1.282.559-1.543.66-.032.07-.082.153-.165.153-.044 0-.07-.019-.101-.076L5.218 8.01c.4.026.68 0 1.282-.05v-.953h-.419c-.21 0-.362 0-.61.038l-.1-.222c.4.032.793.032.824.032H6.5a6.911 6.911 0 0 0-.07-.908c-.291.102-.33.12-.431.152-.032.12-.051.171-.12.171-.045 0-.07-.025-.083-.063l-.452-1.048c.185.013.344.026.763.026.05-.26.133-.813.164-1.105H6c-.413 0-.521.019-.61.038L5.28 3.89c.4.038.8.038.832.038H7.44l.318-.52c.025-.039.07-.076.095-.076zm31.07.177c.038 0 .064.025.127.076l.616.521c.064.051.095.076.095.134 0 .095-.184.165-.24.19-.293.584-.877 1.226-.985 1.346.902.553 1.175 1.232 1.175 1.76 0 .514-.248 1.117-1.156 1.2-.025-.28-.064-.744-.362-.991 0 .152.007 1.174-.006 1.244-.057.273-.578.312-.68.312-.285 0-.285-.134-.285-.26 0-.236.031-.604.038-.839.012-.45.013-.603.019-1.987h-2.763c-.349 0-.457.012-.609.037l-.108-.222c.222.02.603.032.832.032h.959c.044-.12.26-.845.292-1.473l.984.35c.019.006.108.043.108.1 0 .102-.165.14-.254.16-.305.368-.705.73-.87.863h.444l.337-.426c.044-.057.057-.076.102-.076.038 0 .044.007.114.07l.432.381c0-.781 0-1.27-.025-1.86-.013-.305-.045-.458-.077-.616l1.099.336h.31l.21-.273c.05-.063.07-.089.127-.089zm-24.002.032c.723.146 1.44.286 1.44.934a.51.51 0 0 1-.507.514c-.26 0-.318-.146-.477-.584-.044-.114-.209-.559-.47-.813l.014-.051zm11.182.007c.025 0 .044 0 .12.07l.572.482c.031.032.057.057.057.095 0 .064-.057.07-.095.07h-.673c0 .47.012 3.562.006 3.848-.02.616-.273.972-1.2 1.067-.006-.59-.248-.87-.565-1.111v-.051c.171.019.495.044.66.044.165 0 .19-.057.19-.248v-3.55h-.215c-.343 0-.47.014-.61.04l-.108-.23c.248.026.578.038.832.038h.61L26 3.623c.032-.051.051-.076.102-.076zm-17.374.298l1.03.222c.05.013.075.05.075.089 0 .057-.032.095-.197.178 0 .482.013 2.584.013 3.016 0 .298-.387.4-.641.4-.127 0-.223-.013-.223-.184 0-.159.026-.838.026-.978.013-.432.012-.75.012-.895 0-.426 0-1.53-.095-1.848zm29.458.177l.006 3.575c.4.013.552-.126.552-.52 0-.584-.183-.972-.361-1.32.146-.566.216-1.588.222-1.735h-.42zm-3.867.623c.28.063 1.124.241 1.124.87 0 .35-.28.47-.483.47-.336 0-.368-.229-.407-.515-.038-.254-.126-.571-.272-.78l.038-.045zm-16.923.159c.362.082.902.203.902.634 0 .172-.102.248-.159.293h.38c.128-.445.185-.705.21-.927h-1.333zm10.268.101v.718h1.155v-.718h-1.155zm-11.773.756c.057 0 .095.026.12.045l.61.514c.02.019.045.05.045.082 0 .039-.007.077-.039.108a1.217 1.217 0 0 1-.203.115c-.012.235-.019 1.035.026 1.219.057.21.216.59 1.753.59.615 0 1.993-.127 2.552-.266v.057c-.343.298-.413.558-.432 1.06a4.396 4.396 0 0 1-.685.032c-1.937 0-2.255-.127-2.648-.311-.413-.19-.56-.502-.705-.89a5.644 5.644 0 0 1-.832 1.087c-.013.076-.038.197-.102.197-.032 0-.076-.045-.095-.083l-.61-1.048c.248.013.788-.165.87-.19V6.258h-.266c-.229 0-.35.025-.413.038l-.102-.229c.254.032.495.039.546.039h.191l.317-.4c.02-.026.051-.045.102-.045zm11.773.114v.787h1.155v-.787h-1.155zm8.604.724c.032 0 .032 0 .108.057l.616.425c.045.032.082.058.082.128s-.025.088-.253.247c0 .146 0 1.423-.007 1.461-.044.292-.622.33-.667.33-.26 0-.247-.19-.228-.438h-.769c.007.197.007.222-.012.267-.076.177-.483.26-.68.26-.235 0-.24-.114-.24-.216 0-.26.018-1.429.018-1.67 0-.33-.025-.59-.038-.768l.99.324h.705l.248-.324c.057-.077.095-.083.127-.083zm-8.604.216v.82h1.155v-.82h-1.155zm7.486.343v1.499h.769V7.058h-.769z" fill="#000" paint-order="markers fill stroke"/></svg>