<svg xmlns="http://www.w3.org/2000/svg" width="512" height="512" viewBox="0 0 512 512">
<path fill="#fff" d="M426.9,347.3c21.9,21.9,21.9,57.7,0,79.7c-21.9,21.9-57.6,21.9-79.5,0c-17.2-17.2-20.6-43.1-10.7-63.9L294,320.3
	c-26.8,15.9-61.3,13.5-85.9-7.1l-29.4,21.2c5.2,18.9,0.7,40.1-14.2,55.1c-21.9,21.9-57.6,21.9-79.5,0C63,367.6,63,331.8,85,309.8
	c19.7-19.5,50.1-21.4,72-6l29.2-21c-10.3-26.8-4.9-58.3,16.7-79.9c0.4-0.2,0.6-0.4,0.9-0.6l-12.9-22.5c-19.5,3.4-40.1-3.4-53.4-19.7
	c-19.7-24-16.1-59.4,8.1-79.1c24-19.5,59.4-15.9,79.1,8.1c17.4,21.4,16.3,51.9-1.1,72.2l12.9,22.7c19.3-5.2,39.9-2.6,57.4,7.7
	l42.7-42.9c-9.9-20.8-6.4-46.5,10.9-63.7c21.9-21.9,57.6-21.9,79.5,0c22.1,21.9,22.1,57.6,0,79.5c-17.2,17.2-42.9,20.8-63.7,10.9
	l-42.7,42.7c13.7,23.2,13.7,52.3,0,75.6l42.7,42.9C384.2,326.7,409.7,330.3,426.9,347.3z"/>
</svg>
