<svg xmlns="http://www.w3.org/2000/svg" width="512" height="512" viewBox="0 0 512 512">
<path fill="#fff" d="M427,272.5c-15.5-15.5-37.8-19.8-57.4-13.4l-54.5-70c9.8-12.7,15.8-28.3,15.8-45.5c0-41.4-33.6-75-75-75
	c-41.4,0-75,33.6-75,75c0,17.2,6.1,32.9,15.8,45.6l-54.5,70c-19.5-6.4-41.8-2.1-57.3,13.4C63,294.4,63,330.1,85,352
	c21.9,21.9,57.6,21.9,79.6,0c19-19,21.5-48.3,7.5-70.1l54.2-69.6c3.5,1.5,7.2,2.6,11,3.5v118.6c-21.8,7.8-37.5,28.4-37.5,52.8
	c0,31,25.2,56.3,56.2,56.3s56.3-25.2,56.3-56.3c0-24.4-15.7-45-37.5-52.8V215.8c3.8-1,7.5-2,11-3.6l54.2,69.7
	c-13.9,21.8-11.5,51.1,7.5,70.1c21.9,21.9,57.6,21.9,79.6,0C449,330.1,449,294.4,427,272.5z"/>
</svg>
