<svg xmlns="http://www.w3.org/2000/svg" width="105" height="48" viewBox="0 0 27.781 12.7"><g aria-label="政府" style="line-height:1.25;-inkscape-font-specification:FangSong" font-weight="400" font-size="10.583" font-family="A-OTF Ryumin Pro" letter-spacing="2.646" word-spacing="0" stroke-width=".265" text-anchor="middle"><path fill="#fff" d="M12.203 9.858c-1.08-.243-2.064-1.005-2.466-1.397.635-.931.984-2.116 1.227-3.217.328-.159.413-.201.413-.307 0-.063-.063-.106-.116-.127l-.762-.35h1.407c.064 0 .159-.01.159-.116 0-.063-.063-.127-.106-.158l-.783-.593c-.085-.063-.148-.116-.201-.116-.053 0-.095.052-.159.137l-.434.593H8.625c.413-.804.583-1.28.688-1.577.392-.148.434-.159.434-.275 0-.064-.031-.127-.116-.159l-1.492-.56c.01.19.02.338-.022.73-.042.39-.264 1.597-.963 3.344-.02-.032-.053-.053-.084-.085l-.54-.54c-.064-.063-.117-.106-.19-.106-.064 0-.096.053-.16.138l-.39.53h-.117V3.01h1.82c.053 0 .159-.01.159-.117 0-.074-.064-.127-.106-.158l-.72-.614c-.063-.053-.137-.106-.19-.106-.064 0-.127.074-.17.127l-.444.614H4.127c-.497 0-1.005-.021-1.502-.064l.169.392c.212-.042.413-.074 1.143-.074h.773v5.736c-.329.053-.445.064-.614.085v-1.82c0-1.017 0-1.546.02-2.244.234-.127.287-.18.287-.275 0-.053-.043-.117-.16-.149l-1.248-.307c.053.17.095.307.127.91.021.382.021 1.366.032 4.001-.254.021-.381.01-.73-.01l.666 1.407c.032.064.085.159.18.159.127 0 .159-.106.223-.318C4.678 9.7 6.816 8.705 7.472 8.292v-.095c-.402.106-.752.19-1.8.38V5.9h1.334c.032 0 .053 0 .074-.01-.275.634-.413.867-.497 1.005l.063.063c.498-.444.932-1.026 1.302-1.608 0 1.26.328 2.296.656 3.048-.36.55-1.344 1.799-3.566 2.677l.02.085c2.562-.487 3.578-1.45 4.044-1.926.55.74 1.354 1.482 2.042 1.83.244-.624.646-.92 1.037-1.121zM9.832 4.461a8.867 8.867 0 0 1-.783 3.122c-.476-.783-.836-1.725-.963-2.455.19-.286.338-.561.402-.667zM25.358 5.784c0-.064-.032-.095-.096-.159l-.677-.624c-.085-.085-.137-.117-.201-.117-.053 0-.106.074-.159.138l-.444.624h-.254c0-.487.01-1.196.01-1.333.339-.244.339-.286.339-.339 0-.085-.074-.127-.233-.159L22.3 3.52c.159.55.159.709.17 2.127h-.784c-.116 0-.857-.01-1.503-.063l.17.391c.264-.053.497-.074 1.143-.074h.973c.011 1.863.011 2.879 0 3.588-.01.35-.031.413-.433.413-.223 0-.858-.064-1.038-.096l-.01.085c.592.37.92.72 1.005 1.334.55-.043.963-.233 1.027-.265.497-.243.54-.54.54-1.048 0-1.11-.032-2.9-.032-4.01h1.672c.074 0 .159-.011.159-.117zm-.36-2.667c0-.064-.042-.117-.106-.17l-.836-.645c-.085-.064-.138-.106-.19-.106-.085 0-.117.053-.17.127l-.444.646H21.05a8.38 8.38 0 0 1 0-.73c.307-.202.339-.233.339-.329 0-.116-.106-.137-.222-.17L19.8 1.424c.16.54.19.847.17 1.546h-2.244l-1.365-.582c.19.72.19 1.756.19 2.656 0 1.164-.042 3.778-.867 5.747l.074.02c.857-.941 1.365-1.925 1.598-3.174.307-.148.582-.286 1.249-.9l-.022 1.937c0 .307-.074 1.81-.074 2.148 0 .16 0 .456.434.456.138 0 .71-.022.71-.71 0-.264-.043-1.555-.043-1.852 0-1.608 0-2.402.01-2.635.265-.159.297-.18.297-.264 0-.064-.032-.085-.275-.212.412-.53.571-.752.762-1.016.317-.074.37-.095.37-.222 0-.064-.095-.138-.127-.16L19.4 3.404c-.106 1.29-1.428 3.45-2.021 4.074.116-.603.254-1.503.254-3.09 0-.19-.021-1.037-.032-1.164h7.24c.063 0 .158-.011.158-.106zM21.96 8.07c0-.762-1.08-1.175-1.63-1.355l-.042.064c.36.55.53 1.217.54 1.28.064.286.148.625.53.625.221 0 .602-.16.602-.614z" style="-inkscape-font-specification:'A-OTF Ryumin Pro';text-align:center"/></g></svg>