<svg xmlns="http://www.w3.org/2000/svg" viewBox="0 0 66.675 12.7" height="48" width="252"><g style="line-height:1.25;-inkscape-font-specification:FangSong" aria-label="一周报告" font-weight="700" font-size="11.289" font-family="FangSong" letter-spacing="5.292" word-spacing="0" stroke-width=".265" text-anchor="middle"><path style="-inkscape-font-specification:FangSong;text-align:center" fill="#fff" d="M13.119 5.865q-1.058.044-4.454.309-3.351.264-4.145.352l-.838-.44q1.676-.045 4.85-.31 3.176-.264 3.749-.44zM25.687 3.13q-.089.045-.089.574v.441q1.191-.176 1.147-.309l.53.486q-.53 0-1.677.22v.97q1.323-.176 1.764-.308l.53.396q-.53.044-2.25.31-1.72.264-2.16.352l-.53-.485q.75 0 2.25-.22v-.97q-.97.131-1.147.22l-.53-.397q.53-.044 1.677-.22v-.883q-.045-.308-.221-.573L22.821 3q0 3.175-.442 4.939-.44 1.763-2.072 3.483l-.133-.132q1.5-1.808 1.808-3.528.353-1.72.397-3.484.088-1.763-.132-2.601l.22-.044.31.926 5.379-.53.309-.485.529.486-.309.352v7.761q0 .838-.308 1.456-.397-.485-1.764-1.544l.088-.176 1.41.75q.133 0 .177-.442V2.47l-3.086.265zM24.32 9.04q.044.661-.133.617l-.44-.529q.176 0 .132-1.014-.045-1.147-.177-1.5l.088-.088.441.53 2.073-.265.309-.353.529.441-.353.309-.088 1.19.353.353zm2.028-1.808l-2.073.22.045 1.103 1.94-.176zM41.473 11.377q0 .265-.132.177l-.485-.927q.22.089.22-.97l.045-6.35q.044-.838-.133-1.72l.177-.088.352.97 2.779-.352.264-.441.53.44-.31.31q-.22 1.014-.44 1.763-.22.706-.485 1.28-.53-.75-1.28-1.412l.089-.132 1.058.661q.22-.529.574-2.072l-2.779.352v3.087q.75-.044 2.91-.44l.177-.398.574.485-.31.31q-.44 1.542-1.057 2.733.573.882.926 1.367.352.441.573.573.264.133 1.235.22v.221l-1.72.133q0-.309-.309-.75-.309-.485-.882-1.455-.838 1.41-2.16 2.425zM43.37 8.6q-.485-.882-.75-1.279-.265-.397-.53-.44v-.133l.618-.088q-.044.132.265.661.308.485.573.926.53-1.102.794-2.249-2.073.265-2.382.397l-.44-.22-.045 4.894Q42.62 10.01 43.37 8.6zm-5.821.97l1.41 1.014q.089-.529.089-1.41l.044-2.206q-1.72.97-1.72 1.059l-.705-.397q.529-.132 2.425-1.058V4.674q-1.411.265-1.543.353l-.574-.485q.486 0 2.117-.265l.044-1.631q.044-.926-.264-1.367l.088-.088.794.705q-.265.088-.22.75l-.045 1.587q.97-.176.97-.264l.441.485q-.485 0-1.411.176v1.72l1.279-.617.088.176-1.367.794-.044 3.395q0 .882-.353 1.5-.617-.926-1.631-1.897zM60.656 10.54l-4.322.308q.088.75-.132.573l-.397-.573q.176-.22.132-.75l-.044-1.587q0-.618-.22-1.147l.176-.088.441.794 3.748-.397.353-.397.485.485-.353.353-.22 2.028zm-2.514-6.174q-1.411.176-1.631.308l-.486-.264q-.396.794-1.146 1.631l-.176-.088q.837-1.235 1.322-2.47.486-1.234.265-1.499l.176-.132.53.75q-.22.088-.353.397-.088.264-.53 1.19.398.044 2.073-.176l.044-1.455q.044-1.103-.176-1.323l.132-.133.706.662q-.265.088-.265.926l-.044 1.279q1.72-.22 2.073-.353l.617.485q-.882.044-2.69.265L58.54 6.13q3.44-.31 3.836-.486l.618.53q-.441 0-4.719.397-4.277.352-4.41.44l-.617-.529q.706.044 4.895-.308zm1.985 3.748l-3.837.353.044 1.94 3.528-.265z"/></g></svg>