<?xml version="1.0" encoding="UTF-8" standalone="no"?>
<svg
   xmlns:dc="http://purl.org/dc/elements/1.1/"
   xmlns:cc="http://creativecommons.org/ns#"
   xmlns:rdf="http://www.w3.org/1999/02/22-rdf-syntax-ns#"
   xmlns:svg="http://www.w3.org/2000/svg"
   xmlns="http://www.w3.org/2000/svg"
   id="svg8"
   version="1.1"
   viewBox="0 0 12.7 12.7"
   height="48"
   width="48">
  <defs
     id="defs2" />
  <metadata
     id="metadata5">
    <rdf:RDF>
      <cc:Work
         rdf:about="">
        <dc:format>image/svg+xml</dc:format>
        <dc:type
           rdf:resource="http://purl.org/dc/dcmitype/StillImage" />
        <dc:title></dc:title>
      </cc:Work>
    </rdf:RDF>
  </metadata>
  <g
     transform="translate(0,-284.29999)"
     id="layer1">
    <g
       id="flowRoot3713"
       style="font-style:normal;font-weight:normal;font-size:40px;line-height:1.25;font-family:sans-serif;letter-spacing:0px;word-spacing:0px;fill:#000000;fill-opacity:1;stroke:none"
       transform="matrix(0.14970493,0,0,0.15777316,-23.166625,249.46241)"
       aria-label="文">
      <path
         id="path3721"
         style="font-style:normal;font-variant:normal;font-weight:normal;font-stretch:normal;font-size:85.33333588px;font-family:'A-OTF Ryumin Pro';-inkscape-font-specification:'A-OTF Ryumin Pro weight=551'"
         d="m 235.60783,289.64238 -0.0853,-0.68267 c -15.36,-1.024 -25.344,-6.22933 -32.17067,-11.34933 4.52267,-5.29067 10.06934,-13.48267 14.50667,-29.184 2.304,-0.59734 3.24267,-1.10934 3.24267,-1.87734 0,-0.768 -0.512,-1.024 -1.024,-1.28 l -7.25334,-3.66933 h 21.41867 c 0.59734,0 1.36534,-0.0853 1.36534,-0.93867 0,-0.512 -0.42667,-0.93866 -0.85334,-1.28 l -7.168,-5.97333 c -0.512,-0.42667 -1.19466,-0.85333 -1.536,-0.85333 -0.42666,0 -0.93866,0.42666 -1.36533,1.024 l -4.18134,5.97333 h -19.02933 c 0,-3.15733 0,-10.32533 0.0853,-10.92267 1.536,-0.768 3.24267,-1.70666 3.24267,-2.56 0,-0.768 -0.59733,-1.024 -1.19467,-1.10933 l -12.544,-2.47467 c 1.62134,4.94934 1.62134,9.216 1.62134,17.06667 h -20.736 c -0.93867,0 -6.912,-0.0853 -12.11734,-0.512 l 1.36534,3.15733 c 2.13333,-0.42666 4.01066,-0.59733 9.216,-0.59733 h 8.10666 c 1.792,17.83467 7.76534,28.84267 13.73867,36.26667 -12.032,12.71466 -25.51467,18.176 -33.536,21.07733 l 0.0853,0.68267 c 15.78667,-1.87734 28.50134,-6.82667 38.656,-15.95734 3.84,3.75467 12.37334,11.43467 28.84267,15.872 1.792,-4.69333 4.69334,-8.10666 9.30134,-9.89866 z m -27.56267,-48.04267 c 0.0853,2.21867 -1.024,16.81067 -11.09334,30.63467 -8.53333,-8.27734 -14.336,-18.944 -16.64,-30.63467 z" />
    </g>
  </g>
</svg>
