<svg xmlns="http://www.w3.org/2000/svg" width="48" height="48" viewBox="0 0 12.7 12.7"><g style="line-height:1.25"><path d="M7.79 5.212V3.307h2.984c.074 0 .17-.02.17-.116 0-.074-.064-.117-.117-.159L9.61 2.058c-.053-.042-.138-.116-.201-.116-.074 0-.127.074-.16.127l-.624.984H4.9c.233-.317.339-.487.466-.688.349-.074.476-.095.476-.275 0-.074-.042-.116-.17-.159l-1.989-.624c-.138 1.09-.952 3.112-2.043 4.307l.074.064c.265-.116.72-.318 1.503-.92.064.888.074 1.015.074 3.248h-.465c-.466 0-.932-.02-1.387-.063l.18.38C1.82 8.282 2 8.26 2.635 8.26H6.15c-.01.286-.064 2.244-.064 2.667 0 .265.053.466.445.466.19 0 .614-.032 1.026-.275.265-.148.286-.328.286-.561 0-.328-.032-1.937-.032-2.297h3.292c.085 0 .159-.02.159-.127 0-.042-.043-.095-.106-.158L9.969 6.927c-.042-.043-.116-.095-.19-.095-.085 0-.138.063-.17.116l-.645 1.058H7.81a229.63 229.63 0 0 1-.02-2.54h2.687c.096 0 .16-.02.16-.116 0-.064-.043-.106-.107-.159l-1.11-.973c-.054-.043-.128-.106-.202-.106-.074 0-.127.074-.159.127l-.56.973zM4.814 8.006v-2.54H6.16v.55c0 .138-.01 1.673-.01 1.99zm.117-2.794L3.28 4.704c.159-.127.783-.635 1.418-1.397h1.46v1.905z" style="-inkscape-font-specification:'A-OTF Ryumin Pr5'" font-family="A-OTF Ryumin Pr5" aria-label="ๅนด" font-weight="400" font-size="10.583" letter-spacing="0" word-spacing="0" stroke-width=".265"/></g></svg>